<svg id="Layer_1" data-name="Layer 1" xmlns="http://www.w3.org/2000/svg" viewBox="0 0 463.11 422.73"><defs><style>.cls-1{fill:none;}</style></defs><title>stitchkeylogo1</title><path class="cls-1" d="M733.2,637.36c2,1.06,3.94,2.22,5.89,3.37,1.25.75,2.28.57,2.92-.59a2.48,2.48,0,0,0-.81-3.46c-2.06-1.33-4.2-2.49-6.32-3.69a4.2,4.2,0,0,0-1-.3l-.25-.28c-.56.66-1.37,1.21-1.61,2A2.34,2.34,0,0,0,733.2,637.36Z" transform="translate(-389 -610)"/><path class="cls-1" d="M751.82,676.2a14.26,14.26,0,0,0-.23,2.84,1.41,1.41,0,0,0,.88,1,33,33,0,0,0,3.59.05v-.06a39.84,39.84,0,0,0,4.09,0,2.28,2.28,0,0,0,1.82-2.5,2.14,2.14,0,0,0-2.1-2.14,20,20,0,0,1-2.68,0,4.56,4.56,0,0,1-2.05-.81C753.75,673.48,752.12,674.22,751.82,676.2Z" transform="translate(-389 -610)"/><path class="cls-1" d="M794.83,682.55c1.73,1.38,3.47,2.75,5.13,4.24,1.14,1,2.24,1.19,3.08.15a2.5,2.5,0,0,0-.28-3.58c-1.81-1.74-3.77-3.28-5.69-4.85a2.23,2.23,0,0,0-1-.37,1.93,1.93,0,0,0-2.3,1.59A2.57,2.57,0,0,0,794.83,682.55Z" transform="translate(-389 -610)"/><path class="cls-1" d="M748.05,652.55a8,8,0,0,0,1.58,1.49,2.53,2.53,0,0,0,1.9-3.77c-1.25-2.52-2.67-4.93-4.14-7.28a1.73,1.73,0,0,0-2.94-.35,2.73,2.73,0,0,0-.15,3.4C745.55,648.21,746.75,650.43,748.05,652.55Z" transform="translate(-389 -610)"/><path class="cls-1" d="M750.46,659.5c.46,3.12.84,6.2,1.4,9.24a1.73,1.73,0,0,0,2.26,1.4,1.93,1.93,0,0,0,1.57-2.21c-.36-3.13-.87-6.24-1.45-9.32a1.74,1.74,0,0,0-2.37-1.41A2,2,0,0,0,750.46,659.5Z" transform="translate(-389 -610)"/><path class="cls-1" d="M809.11,717.69c0-1.36,0-2.72,0-4.09v-4.39c0-1.24-.52-2-1.55-2.2a1.78,1.78,0,0,0-2.26,1.62,13.38,13.38,0,0,0-.2,2.69c0,2.27,0,4.54.14,6.8a2.06,2.06,0,0,0,2.12,2.11C808.42,720.08,809.09,719.13,809.11,717.69Z" transform="translate(-389 -610)"/><path class="cls-1" d="M832.41,785.12A2.37,2.37,0,0,0,831,788c.43,2.71.9,5.42,1.38,8.12.21,1.23.84,1.94,1.95,2a2.12,2.12,0,0,0,2-2.61c-.43-2.86-.94-5.72-1.5-8.55C834.54,785.5,833.5,784.82,832.41,785.12Z" transform="translate(-389 -610)"/><path class="cls-1" d="M821.69,756.16c.9,2.56,1.78,5.14,2.81,7.63.3.74,1.07,1.2,1.63,1.79a2.51,2.51,0,0,0,2.16-3.23c-.9-2.78-1.92-5.51-3-8.21a1.85,1.85,0,0,0-2.73-1.09A2.51,2.51,0,0,0,821.69,756.16Z" transform="translate(-389 -610)"/><path class="cls-1" d="M826.94,771.34c.71,3,1.5,6,2.39,8.91a1.68,1.68,0,0,0,2.23,1.2c1-.3,1.49-1.1,1.69-2.41-.9-3.13-1.72-6.3-2.74-9.38a1.61,1.61,0,0,0-2.36-.85A2.12,2.12,0,0,0,826.94,771.34Z" transform="translate(-389 -610)"/><path class="cls-1" d="M807.57,723.87a2.38,2.38,0,0,0-.52,3c1.39,2.55,2.84,5,4.44,7.4a2.18,2.18,0,0,0,2.13.62c.63-.2,1.08-1.18,1.47-1.65a5,5,0,0,0-.21-1.17c-1.59-2.73-3.14-5.51-4.86-8.13C809.44,723,808.37,723.14,807.57,723.87Z" transform="translate(-389 -610)"/><path class="cls-1" d="M815,740.91c1.16,2.69,2.44,5.32,3.73,7.94a1.58,1.58,0,0,0,2.27.79c.63-.34,1-1.22,1.56-1.86l-.24-.29a2.58,2.58,0,0,0-.08-.75c-1.33-2.82-2.59-5.68-4-8.41-.52-1-1.59-.93-2.44-.32A2.31,2.31,0,0,0,815,740.91Z" transform="translate(-389 -610)"/><path class="cls-1" d="M803.7,693.82c.52,2.27.95,4.58,1.31,6.9.25,1.54,1,2.51,2.17,2.41s1.92-1.23,2.11-2.8c-.59-2.72-1.11-5.46-1.79-8.15-.45-1.77-1.54-2.47-2.67-2C803.55,690.74,803.26,691.91,803.7,693.82Z" transform="translate(-389 -610)"/><path class="cls-1" d="M604,635.5c1.16,0,2.32,0,3.48,0s2.31,0,3.47,0A2.16,2.16,0,0,0,613,633a2.12,2.12,0,0,0-2.1-2.3c-2.32,0-4.63,0-6.95,0a2.23,2.23,0,0,0-2.2,2.38A2.26,2.26,0,0,0,604,635.5Z" transform="translate(-389 -610)"/><path class="cls-1" d="M632.83,635.49q3.54.07,7.07,0a2.25,2.25,0,0,0,2.14-2.33,2.32,2.32,0,0,0-2.18-2.43c-1.16,0-2.32,0-3.47,0h-3.48a2.12,2.12,0,0,0-2.11,2.42C630.81,634.54,631.54,635.46,632.83,635.49Z" transform="translate(-389 -610)"/><path class="cls-1" d="M589.65,635.5c1.11,0,2.23,0,3.34,0h3.34a2.4,2.4,0,0,0,0-4.79q-3.35,0-6.69,0a2.39,2.39,0,0,0,0,4.78Z" transform="translate(-389 -610)"/><path class="cls-1" d="M618.45,635.5c1.11,0,2.23,0,3.34,0s2.4,0,3.6,0a2.4,2.4,0,0,0,0-4.77c-2.31,0-4.63,0-6.94,0a2.39,2.39,0,0,0,0,4.77Z" transform="translate(-389 -610)"/><path class="cls-1" d="M560.47,635.49q3.54.07,7.07,0a2.15,2.15,0,0,0,2-2.39,2.18,2.18,0,0,0-2.05-2.37c-1.16,0-2.31,0-3.47,0s-2.4,0-3.6,0a2.4,2.4,0,0,0,0,4.76Z" transform="translate(-389 -610)"/><path class="cls-1" d="M575,635.5c1.16,0,2.31,0,3.47,0h3.34a2.32,2.32,0,0,0,2.31-2.44,2.26,2.26,0,0,0-2.25-2.34q-3.4,0-6.81,0a2.07,2.07,0,0,0-2.17,2.34A2.12,2.12,0,0,0,575,635.5Z" transform="translate(-389 -610)"/><path class="cls-1" d="M647.41,635.5c1.11,0,2.23,0,3.34,0s2.4,0,3.6,0a2.23,2.23,0,0,0,2.13-2.46,2.2,2.2,0,0,0-2.13-2.3c-2.32,0-4.63,0-7,0a2.18,2.18,0,0,0-2.18,2.38A2.22,2.22,0,0,0,647.41,635.5Z" transform="translate(-389 -610)"/><path class="cls-1" d="M690.84,635.5c1.11,0,2.23,0,3.34,0s2.32,0,3.48,0A2.31,2.31,0,0,0,700,633a2.24,2.24,0,0,0-2.28-2.31c-2.27,0-4.54,0-6.81,0a2.09,2.09,0,0,0-2.16,2.37A2.13,2.13,0,0,0,690.84,635.5Z" transform="translate(-389 -610)"/><path class="cls-1" d="M719.8,635.5c2.32,0,4.63,0,7,0a2.1,2.1,0,0,0,2.06-2.33,2.13,2.13,0,0,0-2.11-2.43c-1.16,0-2.32,0-3.47,0s-2.23,0-3.35,0a2.39,2.39,0,0,0-.08,4.78Z" transform="translate(-389 -610)"/><path class="cls-1" d="M705.25,635.49q3.54.07,7.07,0a2.4,2.4,0,0,0,0-4.76c-1.2-.05-2.4,0-3.6,0h-3.47a2.4,2.4,0,0,0,0,4.77Z" transform="translate(-389 -610)"/><path class="cls-1" d="M676.35,635.5c1.11,0,2.22,0,3.33,0h1.79c.6,0,1.2,0,1.79,0a2.28,2.28,0,0,0,2.18-2.41,2.19,2.19,0,0,0-2.2-2.36c-2.3,0-4.61,0-6.91,0a2.22,2.22,0,0,0-2.19,2.39A2.24,2.24,0,0,0,676.35,635.5Z" transform="translate(-389 -610)"/><path class="cls-1" d="M661.7,635.48q3.6.09,7.2,0a2.41,2.41,0,0,0,0-4.76c-1.15,0-2.31,0-3.47,0s-2.4,0-3.6,0a2.4,2.4,0,0,0-.08,4.75Z" transform="translate(-389 -610)"/><path class="cls-1" d="M414.33,874.9c-.83-2.67-1.74-5.86-2.85-8.95a1.51,1.51,0,0,0-2.25-.73,2.17,2.17,0,0,0-1.24,2.52q1.18,4.54,2.68,9a1.62,1.62,0,0,0,2.29,1C413.91,877.35,414.34,876.59,414.33,874.9Z" transform="translate(-389 -610)"/><path class="cls-1" d="M546.05,635.5c1.12,0,2.23,0,3.35,0s2.4,0,3.6,0a2.12,2.12,0,0,0,2.09-2.31,2.16,2.16,0,0,0-2.09-2.46c-2.32,0-4.63,0-7,0a2.22,2.22,0,0,0-2.2,2.38A2.25,2.25,0,0,0,546.05,635.5Z" transform="translate(-389 -610)"/><path class="cls-1" d="M404.18,810.78a2.11,2.11,0,0,0,2.11-2c.32-2.84.56-5.7.83-8.55,0-1.52-.55-2.51-1.59-2.68a1.8,1.8,0,0,0-2.26,1.65c-.42,3.07-.74,6.17-.94,9.27A2.09,2.09,0,0,0,404.18,810.78Z" transform="translate(-389 -610)"/><path class="cls-1" d="M409.92,859c-.5-3-1.09-5.88-1.73-8.8a1.79,1.79,0,0,0-2.3-1.56c-1.07.24-1.57,1.11-1.72,2.43.66,3.07,1.24,6.16,2,9.18a1.67,1.67,0,0,0,2.31,1.27A2.15,2.15,0,0,0,409.92,859Z" transform="translate(-389 -610)"/><path class="cls-1" d="M405.34,844.84a2.29,2.29,0,0,0,1.7-2.57c-.25-2.85-.46-5.71-.76-8.56a2.14,2.14,0,0,0-2.15-2.11,2.17,2.17,0,0,0-1.83,2.58c.19,2.91.47,5.81.8,8.7A2.06,2.06,0,0,0,405.34,844.84Z" transform="translate(-389 -610)"/><path class="cls-1" d="M405.83,793.74a1.81,1.81,0,0,0,2.4-1.37c.67-3,1.2-6,1.66-8.29.18-2-.3-2.92-1.44-3.23s-2,.31-2.34,1.7c-.64,2.86-1.23,5.75-1.71,8.66A2.21,2.21,0,0,0,405.83,793.74Z" transform="translate(-389 -610)"/><path class="cls-1" d="M404,827.84a2.26,2.26,0,0,0,1.82-2.48c0-1.37,0-2.73,0-4.1,0-.66,0-1.32,0-2s0-1.41,0-2.12c0-1.6-.68-2.53-1.81-2.61s-2.1.72-2.16,2.24c-.12,2.93-.12,5.87-.05,8.8A2.16,2.16,0,0,0,404,827.84Z" transform="translate(-389 -610)"/><path class="cls-1" d="M431,730.12c1.07-1.65,2.16-3.28,3.17-5a16.74,16.74,0,0,0,.9-2.21l-.2-.12v-.45c0-1.65-.84-2.76-2-2.82s-1.75.79-2.06,2.38a4.73,4.73,0,0,1-.62,1.46c-.8,1.31-1.65,2.58-2.45,3.9a2.92,2.92,0,0,0,.19,3.66C429,731.87,430.09,731.58,431,730.12Z" transform="translate(-389 -610)"/><path class="cls-1" d="M833.36,804.39c0,1.25.16,2.5.25,3.75.12,1.65.17,3.32.38,5,.18,1.42,1,2.1,2.18,2s1.73-1,1.76-2.46c0-.41,0-.81,0-1.21H838c-.1-1.2-.21-2.4-.31-3.6s-.16-2.51-.3-3.75a2,2,0,1,0-4,.32Z" transform="translate(-389 -610)"/><path class="cls-1" d="M414.06,760.93c.83.6,1.9.64,2.32-.27,1.44-3.07,2.67-6.27,4.1-9.73a9.62,9.62,0,0,0-1.81-2,1.49,1.49,0,0,0-2.19.9c-1.17,2.74-2.27,5.53-3.29,8.35A2.31,2.31,0,0,0,414.06,760.93Z" transform="translate(-389 -610)"/><path class="cls-1" d="M420.48,745.61c1,.7,2.16.27,2.89-1.17,1.15-2.25,2.27-4.51,3.38-6.77.21-.43.34-.91.66-1.78a8.87,8.87,0,0,0-1.75-1.95c-.93-.55-1.75.12-2.26,1.1q-1.81,3.47-3.53,7C419.17,743.51,419.45,744.94,420.48,745.61Z" transform="translate(-389 -610)"/><path class="cls-1" d="M409.43,777.15c1.12.45,2.13-.18,2.57-1.68.74-2.47,1.45-5,2.15-7.44a7.43,7.43,0,0,0,.18-.87c0-1.56-.53-2.34-1.48-2.63-1.11-.34-2,.28-2.34,1.52-.83,2.64-1.6,5.31-2.33,8C407.76,775.54,408.26,776.68,409.43,777.15Z" transform="translate(-389 -610)"/><path class="cls-1" d="M430.85,713.24c0,1.49.68,2.38,1.78,2.49a2,2,0,0,0,2.22-2.15c.08-3,.08-6,0-9a2.11,2.11,0,0,0-2.11-2.17,2.23,2.23,0,0,0-1.88,2.43c0,1.36,0,2.73,0,4.1S430.82,711.82,430.85,713.24Z" transform="translate(-389 -610)"/><path class="cls-1" d="M462.64,675.08a5.28,5.28,0,0,0-1.52-.27c-1.84,0-3.68,0-5.52,0a3.92,3.92,0,0,0-1.38.29c-1.15.45-1.41,1.55-1.21,2.8a1.77,1.77,0,0,0,1.84,1.7h3.6v.1c1.2,0,2.39,0,3.59,0a2.08,2.08,0,0,0,2.1-2A2.3,2.3,0,0,0,462.64,675.08Z" transform="translate(-389 -610)"/><path class="cls-1" d="M461.1,963.19c-1.45.09-2.9.19-4.35.21-.8,0-1.61-.26-2.41-.21a2.15,2.15,0,0,0-1.88,2.4,2.19,2.19,0,0,0,1.94,2.34l3.93.35c1-.11,2-.23,3.09-.33a2.39,2.39,0,1,0-.32-4.76Z" transform="translate(-389 -610)"/><path class="cls-1" d="M476,962.84c-2.3,0-4.61,0-6.91,0a2.19,2.19,0,0,0-2.2,2.35,2.24,2.24,0,0,0,2.17,2.41c1.15,0,2.3,0,3.45,0H476a2.24,2.24,0,0,0,2.19-2.38A2.17,2.17,0,0,0,476,962.84Z" transform="translate(-389 -610)"/><path class="cls-1" d="M447.33,676.56a69.54,69.54,0,0,0-7.17,3.93,2.56,2.56,0,0,0-.5,3.34,1.92,1.92,0,0,0,2.76.58c1.95-1.13,3.91-2.24,5.89-3.29a2.54,2.54,0,0,0,1.51-2.21C449.77,677.22,448.57,676,447.33,676.56Z" transform="translate(-389 -610)"/><path class="cls-1" d="M476.49,675.38c-1.16,0-2.31,0-3.47,0h-3.34a2,2,0,0,0-2.29,2.16,2.19,2.19,0,0,0,2.16,2.55c1.15.09,2.31,0,3.47,0a30.76,30.76,0,0,0,3.72-.08,2.28,2.28,0,0,0,1.89-2.58A2.14,2.14,0,0,0,476.49,675.38Z" transform="translate(-389 -610)"/><path class="cls-1" d="M447.64,961.48c-1.82-1-3.59-2.09-5.38-3.14-.45-.26-.92-.49-1.67-.89a9,9,0,0,0-1.6,2,2.19,2.19,0,0,0,.9,2.7c2.13,1.36,4.28,2.69,6.5,3.83a1.91,1.91,0,0,0,2.86-1.29A2.69,2.69,0,0,0,447.64,961.48Z" transform="translate(-389 -610)"/><path class="cls-1" d="M419.94,890c-.95-2.48-1.89-5-3-7.39a5.2,5.2,0,0,0-1.38-1.49,2.29,2.29,0,0,0-2.37,3.13c1,2.71,2,5.36,3.16,8a1.79,1.79,0,0,0,2.73,1A2.61,2.61,0,0,0,419.94,890Z" transform="translate(-389 -610)"/><path class="cls-1" d="M433.17,922.66c1.05-.14,1.7-1.16,1.74-3.14a3.7,3.7,0,0,0-.28-1.19c-1.26-2.21-2.55-4.41-3.91-6.55a1.79,1.79,0,0,0-2.75-.5,2.65,2.65,0,0,0-.5,3.23c.54,1.08,1.2,2.08,1.79,3.13a17.91,17.91,0,0,1,1.54,2.94C431.35,922.24,431.88,922.84,433.17,922.66Z" transform="translate(-389 -610)"/><path class="cls-1" d="M432.79,939.87c1.13,0,2-1,2.09-2.54s0-2.73,0-4.09.05-2.74,0-4.1c-.06-1.66-.89-2.54-2.2-2.48s-1.82.9-1.83,2.54q0,4,0,8C430.86,938.84,431.62,939.85,432.79,939.87Z" transform="translate(-389 -610)"/><path class="cls-1" d="M437.34,686.52a1.67,1.67,0,0,0-2.63.56,24.53,24.53,0,0,0-3.09,8.62c0,1.86.49,2.81,1.51,3a1.94,1.94,0,0,0,2.33-1.58c.85-2.52,1.74-5,2.6-7.54A2.47,2.47,0,0,0,437.34,686.52Z" transform="translate(-389 -610)"/><path class="cls-1" d="M435.4,945.35a2,2,0,0,0-2.1-1.68,2.07,2.07,0,0,0-1.84,2.6c.82,3,1.78,6,2.87,8.85A1.73,1.73,0,0,0,437,956a2.67,2.67,0,0,0,.81-3.16Q436.59,949.09,435.4,945.35Z" transform="translate(-389 -610)"/><path class="cls-1" d="M426.86,904.66c-1.15-2.37-2.3-4.74-3.54-7a5.33,5.33,0,0,0-1.31-1.31,2.37,2.37,0,0,0-2.2,3.53c1.14,2.49,2.36,4.94,3.62,7.34.7,1.33,1.92,1.6,2.9.83A2.64,2.64,0,0,0,426.86,904.66Z" transform="translate(-389 -610)"/><path class="cls-1" d="M711.85,1007.48h-6.8a2.19,2.19,0,0,0-2.41,2.23,2.38,2.38,0,0,0,2.4,2.51c1.11,0,2.23,0,3.34,0a28.88,28.88,0,0,0,3.84-.15c1.2-.18,1.8-1.23,1.65-2.59S713,1007.47,711.85,1007.48Z" transform="translate(-389 -610)"/><path class="cls-1" d="M746.73,996.17c-.84-.58-1.7-.2-2.44.61-1.53,1.68-3.08,3.33-4.69,4.91a2.82,2.82,0,0,0-.76,3.54,1.82,1.82,0,0,0,3,.42c1.86-1.76,3.62-3.67,5.37-5.59a8.5,8.5,0,0,0,.88-1.93A7.58,7.58,0,0,0,746.73,996.17Z" transform="translate(-389 -610)"/><path class="cls-1" d="M733.3,1005.5c-4.46,2-9.11,2.13-13.79,2a2.12,2.12,0,0,0-2.39,2.23,2.35,2.35,0,0,0,2.29,2.49c1.24.06,2.49,0,4.24,0,3.41.41,7.14-.67,10.81-2.14a2.49,2.49,0,0,0,1.48-3.2A1.92,1.92,0,0,0,733.3,1005.5Z" transform="translate(-389 -610)"/><path class="cls-1" d="M776.38,677.44c-.11-1.33-.81-2.07-2-2.06H767.2c-1.17,0-1.89.7-2,2s.45,2.45,1.56,2.52a72.41,72.41,0,0,0,8.07,0C775.93,679.88,776.5,678.77,776.38,677.44Z" transform="translate(-389 -610)"/><path class="cls-1" d="M753.84,963.84c-1.22,0-2.06,1.2-2.06,2.9,0,1.27,0,2.54,0,3.8h0c0,1.42,0,2.84,0,4.25,0,1.86,1.62,3.06,2.87,2a4.22,4.22,0,0,0,1.14-2.65c.15-2.51.08-5,.06-7.55C755.82,964.88,755.05,963.84,753.84,963.84Z" transform="translate(-389 -610)"/><path class="cls-1" d="M767.19,962.83c-1.16,0-2.32,0-3.47,0s-2.32,0-3.47,0a2.06,2.06,0,0,0-2.06,2.31c0,1.47.74,2.42,2.08,2.45q3.48.06,6.94,0a2.39,2.39,0,0,0,0-4.77Z" transform="translate(-389 -610)"/><path class="cls-1" d="M753,980.91a2,2,0,0,0-2.48,1.49c-.87,2.67-1.74,5.35-2.55,8.05a2.22,2.22,0,0,0,1.92,3c1,.12,1.64-.59,2-1.65.85-2.62,1.7-5.26,2.45-7.93A2.38,2.38,0,0,0,753,980.91Z" transform="translate(-389 -610)"/><path class="cls-1" d="M653.89,1007.49c-1.15,0-2.31,0-3.47,0s-2.31,0-3.47,0a2.11,2.11,0,0,0-2.22,2.13,2.34,2.34,0,0,0,1.94,2.55,20.57,20.57,0,0,0,2.83.06c1.58,0,3.17,0,4.74-.12,1.22-.14,1.82-1.18,1.74-2.53A2,2,0,0,0,653.89,1007.49Z" transform="translate(-389 -610)"/><path class="cls-1" d="M639.55,1007.48h-6.94a2.06,2.06,0,0,0-2.32,2.14,2.23,2.23,0,0,0,2.17,2.57c1.84.09,3.68,0,5.53,0a8.18,8.18,0,0,0,2-.2,2.16,2.16,0,0,0,1.49-2.6A1.91,1.91,0,0,0,639.55,1007.48Z" transform="translate(-389 -610)"/><path class="cls-1" d="M668.38,1007.49c-1.16,0-2.31,0-3.47,0h-3.34a2.14,2.14,0,0,0-2.36,2.28,2.34,2.34,0,0,0,2.32,2.45c1,.06,2.06,0,3.09,0,1.32,0,2.66.06,4-.08a2.22,2.22,0,0,0,1.87-2.57A2,2,0,0,0,668.38,1007.49Z" transform="translate(-389 -610)"/><path class="cls-1" d="M697.56,1007.49h-6.94c-1.56,0-2.38.75-2.42,2.19a2.25,2.25,0,0,0,2.34,2.54c2.18.06,4.37,0,6.55,0a2.7,2.7,0,0,0,1-.23,2.22,2.22,0,0,0,1.33-2.6C699.25,1008.23,698.63,1007.49,697.56,1007.49Z" transform="translate(-389 -610)"/><path class="cls-1" d="M683,1007.48h-6.93c-1.6,0-2.3.7-2.31,2.25a2.15,2.15,0,0,0,2.21,2.48c2.23.06,4.45,0,6.68,0a2.45,2.45,0,0,0,.87-.2,2.21,2.21,0,0,0,1.41-2.54C684.81,1008.27,684.17,1007.47,683,1007.48Z" transform="translate(-389 -610)"/><path class="cls-1" d="M833.3,852.9c-1.09-.26-2,.29-2.28,1.61-.67,2.85-1.33,5.71-1.91,8.6a2.23,2.23,0,0,0,1.32,2.61,1.76,1.76,0,0,0,2.44-1.24c.79-3,1.44-6,2.14-9C834.94,854.08,834.41,853.15,833.3,852.9Z" transform="translate(-389 -610)"/><path class="cls-1" d="M835.85,836.13a1.91,1.91,0,0,0-2.41,1.64c-.43,3-.8,6-1.08,9a2,2,0,0,0,1.6,2.36,1.91,1.91,0,0,0,2.35-1.73c.43-2.83.76-5.68,1.07-8.08C837.45,837.37,836.86,836.34,835.85,836.13Z" transform="translate(-389 -610)"/><path class="cls-1" d="M781.55,963.42c-.68,0-1.36-.12-2-.18-1.66-.14-3.31-.36-5-.38-1.12,0-1.82.82-1.92,2.18a2.21,2.21,0,0,0,1.76,2.53c2.12.26,4.25.43,6.37.64h.77a2.32,2.32,0,0,0,2.33-2.42A2.21,2.21,0,0,0,781.55,963.42Z" transform="translate(-389 -610)"/><path class="cls-1" d="M824,885.15a1.74,1.74,0,0,0-2.31,1.08q-1.71,3.82-3.29,7.72a2.59,2.59,0,0,0,.91,3.24c1,.59,2.11.18,2.7-1.14,1.08-2.41,2.09-4.86,3.11-7.31a5.76,5.76,0,0,0,.24-1C825.37,886.25,824.85,885.48,824,885.15Z" transform="translate(-389 -610)"/><path class="cls-1" d="M624.94,1007.49c-1.15,0-2.31,0-3.46,0h-3.34c-1.55,0-2.22.65-2.27,2.15a2.19,2.19,0,0,0,2.13,2.58c1.15.07,2.31,0,3.47,0a35.47,35.47,0,0,0,3.72-.08,2.36,2.36,0,0,0,1.9-2.59A2.1,2.1,0,0,0,624.94,1007.49Z" transform="translate(-389 -610)"/><path class="cls-1" d="M838.17,821.21a2.07,2.07,0,0,0-1.49-2.17c-1.37-.41-2.49.73-2.55,2.68q-.11,4-.16,8a2.21,2.21,0,0,0,1.86,2.46,1.88,1.88,0,0,0,2.1-1.91c.17-1.76.24-3.52.35-5.29h-.1C838.18,823.74,838.2,822.47,838.17,821.21Z" transform="translate(-389 -610)"/><path class="cls-1" d="M816.28,900.22c-.21.14-.9.31-1.18.8-1.44,2.57-2.82,5.19-4.12,7.86a2.24,2.24,0,0,0,.76,2.88,1.6,1.6,0,0,0,2.54-.4c1.48-2.59,2.89-5.25,4.17-8A2.23,2.23,0,0,0,816.28,900.22Z" transform="translate(-389 -610)"/><path class="cls-1" d="M790.82,678.15a2.32,2.32,0,0,0-1.89-2.72c-1.86-.31-3.72-.52-5.58-.78l0,.13c-.51,0-1,0-1.54,0a2.22,2.22,0,0,0-2.2,2.19,2.35,2.35,0,0,0,2.06,2.58c2.29.23,4.58.45,6.88.63A2.06,2.06,0,0,0,790.82,678.15Z" transform="translate(-389 -610)"/><path class="cls-1" d="M809.9,914.92a1.81,1.81,0,0,0-2.76.5c-1.28,1.91-2.67,3.79-2,6.17,0,1.23-.05,2.09,0,2.95.12,1.67,1,2.71,2.14,2.67s1.88-1,1.85-2.85c0-2.23-.12-4.38,1.31-6.25A2.44,2.44,0,0,0,809.9,914.92Z" transform="translate(-389 -610)"/><path class="cls-1" d="M795.13,960.2c-2.19.81-4.38,1.64-6.56,2.46a2.43,2.43,0,0,0-1.51,2.77c.26,1.28,1,2,2.13,1.9l.11.37c2.55-1.09,5.14-2.08,7.64-3.31,1-.49,1.25-1.74.79-3A1.91,1.91,0,0,0,795.13,960.2Z" transform="translate(-389 -610)"/><path class="cls-1" d="M809.09,933.08c-.08-1.75-1.74-2.8-2.88-1.7a4.25,4.25,0,0,0-1.07,2.55c-.16,2.56-.1,5.15-.09,7.72,0,1.59.79,2.57,2,2.59s2-.93,2.05-2.52c0-1.36,0-2.73,0-4.09C809.1,936.11,809.16,934.59,809.09,933.08Z" transform="translate(-389 -610)"/><path class="cls-1" d="M805.36,947.61a9.54,9.54,0,0,0-1.7,1.72c-1.21,2.12-2.28,4.35-3.45,6.51a2.72,2.72,0,0,0,.23,3.39,1.82,1.82,0,0,0,2.79-.22,22.87,22.87,0,0,0,4.21-8.07A2.58,2.58,0,0,0,805.36,947.61Z" transform="translate(-389 -610)"/><path class="cls-1" d="M829.36,869.37c-1-.5-2,.17-2.38,1.4-.89,2.58-1.72,5.18-2.52,7.79a2.64,2.64,0,0,0,1.14,3.28c1.1.46,2.16-.13,2.67-1.62.81-2.39,1.57-4.81,2.33-7.22a11.33,11.33,0,0,0,.3-1.31l.25-.33C830.56,870.68,830.07,869.72,829.36,869.37Z" transform="translate(-389 -610)"/><path class="cls-1" d="M488.49,977.75a1.66,1.66,0,0,0-2.14-1.2,2,2,0,0,0-1.56,2.24c.58,3.24,1.33,6.44,2.18,9.59a1.48,1.48,0,0,0,2.16,1,6.81,6.81,0,0,0,1.58-1.79C489.91,984,489.28,980.82,488.49,977.75Z" transform="translate(-389 -610)"/><path class="cls-1" d="M610.42,1007.49c-2.27,0-4.54,0-6.81,0a2.11,2.11,0,0,0-2.31,2.18,2.36,2.36,0,0,0,2.24,2.54c1.11.06,2.23,0,3.34,0v0c1.25,0,2.49.08,3.73,0a2.2,2.2,0,0,0,1.95-2.5A2,2,0,0,0,610.42,1007.49Z" transform="translate(-389 -610)"/><path class="cls-1" d="M497.77,639.29a2.21,2.21,0,0,0-2.19.32,73.31,73.31,0,0,0-5,6.61,2.46,2.46,0,0,0,.45,3.42c1,.79,2,.47,2.9-.78,1.39-1.9,2.85-3.74,4.25-5.64a18.63,18.63,0,0,0,1.07-2C498.71,640.52,498.35,639.53,497.77,639.29Z" transform="translate(-389 -610)"/><path class="cls-1" d="M523.77,1007.49h-3.6c-1.29,0-2.57,0-3.86,0s-1.87,1-1.83,2.38a2.16,2.16,0,0,0,2.24,2.32c2.23.07,4.46,0,6.68,0a2.33,2.33,0,0,0,1-.24,2.25,2.25,0,0,0,1.3-2.5C525.53,1008.25,524.89,1007.49,523.77,1007.49Z" transform="translate(-389 -610)"/><path class="cls-1" d="M510.52,1007.09c-2.61-1.31-5.32-2.36-8.37-3.68a6.65,6.65,0,0,0-1.48,1.89,2.18,2.18,0,0,0,1,2.78c2.41,1.12,4.84,2.19,7.31,3.14.94.36,1.73-.26,2.18-1.35A2.14,2.14,0,0,0,510.52,1007.09Z" transform="translate(-389 -610)"/><path class="cls-1" d="M486,972.76a2.11,2.11,0,0,0,2.12-2.15c.1-2.5,0-5,0-7.78-1.51,0-3.13,0-4.74,0a2.16,2.16,0,0,0-2,2.25c0,1.32.6,2.31,1.7,2.44s1.13.65,1.06,1.58a9.79,9.79,0,0,0,0,1.21A2.27,2.27,0,0,0,486,972.76Z" transform="translate(-389 -610)"/><path class="cls-1" d="M531.63,635.5c2.27,0,4.55,0,6.82,0a2.19,2.19,0,0,0,2.21-2.36,2.25,2.25,0,0,0-2.31-2.41c-1.11,0-2.23,0-3.34,0s-2.23,0-3.35,0a2.16,2.16,0,0,0-2.25,2.29A2.18,2.18,0,0,0,531.63,635.5Z" transform="translate(-389 -610)"/><path class="cls-1" d="M517,635.49c1.15,0,2.31,0,3.47,0s2.31,0,3.46,0a2.39,2.39,0,0,0,0-4.77q-3.46-.06-6.93,0A2,2,0,0,0,515,633C515,634.51,515.69,635.43,517,635.49Z" transform="translate(-389 -610)"/><path class="cls-1" d="M486.55,665.85c1,.21,1.93-.57,2.27-1.92.12-.48.15-1,.27-1.47.51-2.08,1-4.15,1.54-6.22.36-1.45-.06-2.7-1.05-3.19a1.79,1.79,0,0,0-2.58,1.18c-.87,2.93-1.58,5.93-2.35,8.9C484.86,664.64,485.48,665.62,486.55,665.85Z" transform="translate(-389 -610)"/><path class="cls-1" d="M502.59,639.21c3.05-1.26,5.72-2.26,8.32-3.49a2.13,2.13,0,0,0,.72-2.63c-.34-1.08-1.09-1.87-1.94-1.57a65.22,65.22,0,0,0-7.81,3.23,3.1,3.1,0,0,0-.79,2.5C501.26,638.07,502.15,638.67,502.59,639.21Z" transform="translate(-389 -610)"/><path class="cls-1" d="M483.33,679.91c.8.17,1.61.21,2.41.3v-.11a8.2,8.2,0,0,0,1.92-.05,1.26,1.26,0,0,0,.73-.91c0-2.47-.11-4.95-.28-7.41a2.06,2.06,0,0,0-2.14-2.11c-1.07.08-1.81,1-1.86,2.43,0,.65,0,1.32,0,2,.05.81-.11,1.26-.9,1.46a2.43,2.43,0,0,0,.12,4.43Z" transform="translate(-389 -610)"/><path class="cls-1" d="M493.32,993.16a1.64,1.64,0,0,0-2.64-.32,2.22,2.22,0,0,0-.61,2.92,88.92,88.92,0,0,0,5.34,7.31c.37.45,1.49.38,2.13.1s.79-1.12,1.16-1.7a7.68,7.68,0,0,0-.62-1.76C496.53,997.5,495,995.3,493.32,993.16Z" transform="translate(-389 -610)"/><path class="cls-1" d="M567,1007.49c-2.26,0-4.53,0-6.8,0-1.54,0-2.21.65-2.25,2.15s.67,2.48,2.12,2.57c1.15.08,2.3,0,3.46,0v0a35.49,35.49,0,0,0,3.72,0,2.3,2.3,0,0,0,1.88-2.59A2,2,0,0,0,567,1007.49Z" transform="translate(-389 -610)"/><path class="cls-1" d="M552.66,1007.49h-3.59c-1.2,0-2.39,0-3.59,0s-1.85.69-2.05,2,.53,2.54,1.66,2.6a72.34,72.34,0,0,0,7.93,0c1.17-.07,1.69-1.22,1.56-2.66S553.76,1007.49,552.66,1007.49Z" transform="translate(-389 -610)"/><path class="cls-1" d="M581.61,1007.48h-7.19c-1.17,0-1.89.66-2,2s.4,2.46,1.54,2.53a72.24,72.24,0,0,0,8.06,0c1.1-.06,1.72-1.16,1.6-2.49S582.8,1007.48,581.61,1007.48Z" transform="translate(-389 -610)"/><path class="cls-1" d="M596.14,1007.49c-1.2,0-2.4,0-3.6,0h-3.72c-1.13,0-1.75.74-2,1.95s.44,2.5,1.51,2.57a72,72,0,0,0,8.18,0c1.15-.06,1.64-1.23,1.51-2.55S597.25,1007.5,596.14,1007.49Z" transform="translate(-389 -610)"/><path class="cls-1" d="M538.07,1007.49c-1.15,0-2.31,0-3.46,0h-3.47a2.11,2.11,0,0,0-2.22,2.14,2.3,2.3,0,0,0,1.93,2.54,24.54,24.54,0,0,0,3.21.07,39.54,39.54,0,0,0,4.36-.12,2.15,2.15,0,0,0,1.74-2.53A2,2,0,0,0,538.07,1007.49Z" transform="translate(-389 -610)"/><path d="M845.17,768.22a207.57,207.57,0,0,0-21.44-52.55.83.83,0,0,0-.07-.13c-2.48-2.83-2.86-6.34-2.73-10.24.2-5.86.2-11.75,0-17.62-.23-7.18-1.79-13.88-6.12-19.3a22.5,22.5,0,0,0-12.76-7.91,33.65,33.65,0,0,0-14.3-.4,6.35,6.35,0,0,1-1.15.07c-7.12,0-14.24,0-21.36,0-1.15,0-1.48-.38-1.42-1.71a69.78,69.78,0,0,0-2.79-23.71c-4.49-14.28-13.31-22.26-25.9-24.71a6.4,6.4,0,0,0-1.16,0q-113.36,0-226.72.1c-6.66,0-12.65,3.37-17.78,8.47-6.21,6.18-9.41,14.38-11.08,23.55a79.09,79.09,0,0,0-1,16c0,2,0,2-1.62,2-7,0-14,.06-21,0-3.08,0-6.15-.59-9.22-.52A26.72,26.72,0,0,0,433,662.85c-7.07,3.91-10.93,10.64-12.19,19.55a67.07,67.07,0,0,0-.53,8.75c-.08,6.28,0,12.56,0,18.83a4.63,4.63,0,0,1-.6,2.22c-12.34,19.94-20.72,42.06-25.89,65.92a210.94,210.94,0,0,0-3.81,25.46c-.34,3.77-.41,7.56-.62,11.34a12.07,12.07,0,0,1-.3,1.57v10.34a6.15,6.15,0,0,1,.3,1.25,206.57,206.57,0,0,0,19.91,82.28c3.2,6.86,6.94,13.37,10.39,20.06a5.57,5.57,0,0,1,.62,2.38c0,7.39-.06,14.78.06,22.18a35.61,35.61,0,0,0,3,14.29c3.56,7.86,9.47,11.71,16.63,13.29a37.24,37.24,0,0,0,14.31.15,8,8,0,0,1,1.29-.07h20.07c1.85,0,1.89,0,1.83,2.15a71.67,71.67,0,0,0,2.58,22.54c4.22,14.23,12.7,22.55,25.18,25.32a7.17,7.17,0,0,0,1.54.07q113.94,0,227.88-.07c6.06,0,11.48-3.11,16.26-7.46,6.45-5.86,9.9-13.91,11.76-23.06a73.63,73.63,0,0,0,1.27-17.61c-.06-1.47.32-1.92,1.57-1.91,6.9.06,13.81,0,20.71.06,3.81,0,7.63.74,11.41.43,8.5-.71,15.88-4.18,20.33-13.53A28.41,28.41,0,0,0,820.7,958c.21-8.29.18-16.59.32-24.89a6.39,6.39,0,0,1,.75-2.92,230,230,0,0,0,23-54.39,192.47,192.47,0,0,0,6.09-32.31c.46-4.76.72-9.55,1-14.33q.23-3.48.23-7A211.25,211.25,0,0,0,845.17,768.22ZM430.85,704.89a2.23,2.23,0,0,1,1.88-2.43,2.11,2.11,0,0,1,2.11,2.17c.09,3,.09,6,0,9a2,2,0,0,1-2.22,2.15c-1.1-.11-1.76-1-1.78-2.49s0-2.83,0-4.25S430.82,706.25,430.85,704.89Zm-3.1,22.4c.8-1.32,1.65-2.59,2.45-3.9a4.73,4.73,0,0,0,.62-1.46c.31-1.59,1-2.43,2.06-2.38s2,1.17,2,2.82v.45l.2.12a16.74,16.74,0,0,1-.9,2.21c-1,1.69-2.1,3.32-3.17,5-.94,1.46-2.07,1.75-3.09.83A2.92,2.92,0,0,1,427.75,727.29Zm-7.88,14.76q1.71-3.54,3.53-7c.51-1,1.33-1.65,2.26-1.1a8.87,8.87,0,0,1,1.75,1.95c-.32.87-.45,1.35-.66,1.78-1.11,2.26-2.23,4.52-3.38,6.77-.73,1.44-1.84,1.87-2.89,1.17S419.17,743.51,419.87,742.05Zm-6.68,16.14c1-2.82,2.12-5.61,3.29-8.35a1.49,1.49,0,0,1,2.19-.9,9.62,9.62,0,0,1,1.81,2c-1.43,3.46-2.66,6.66-4.1,9.73-.42.91-1.49.87-2.32.27A2.31,2.31,0,0,1,413.19,758.19Zm-5,15.84c.73-2.67,1.5-5.34,2.33-8,.38-1.24,1.23-1.86,2.34-1.52.95.29,1.52,1.07,1.48,2.63a7.43,7.43,0,0,1-.18.87c-.7,2.49-1.41,5-2.15,7.44-.44,1.5-1.45,2.13-2.57,1.68S407.76,775.54,408.18,774Zm-3.78,17.18c.48-2.91,1.07-5.8,1.71-8.66.3-1.39,1.23-2,2.34-1.7s1.62,1.21,1.44,3.23c-.46,2.33-1,5.33-1.66,8.29a1.81,1.81,0,0,1-2.4,1.37A2.21,2.21,0,0,1,404.4,791.21Zm-1.13,8a1.8,1.8,0,0,1,2.26-1.65c1,.17,1.61,1.16,1.59,2.68-.27,2.85-.51,5.71-.83,8.55a2,2,0,1,1-4-.31C402.53,805.38,402.85,802.28,403.27,799.21Zm-1.4,17.58c.06-1.52,1-2.32,2.16-2.24s1.79,1,1.81,2.61c0,.71,0,1.42,0,2.12s0,1.32,0,2c0,1.37,0,2.73,0,4.1a2.26,2.26,0,0,1-1.82,2.48,2.16,2.16,0,0,1-2.19-2.25C401.75,822.66,401.75,819.72,401.87,816.79Zm1.23,26.09c-.33-2.89-.61-5.79-.8-8.7a2.17,2.17,0,0,1,1.83-2.58,2.14,2.14,0,0,1,2.15,2.11c.3,2.85.51,5.71.76,8.56a2.29,2.29,0,0,1-1.7,2.57A2.06,2.06,0,0,1,403.1,842.88Zm3.07,17.34c-.76-3-1.34-6.11-2-9.18.15-1.32.65-2.19,1.72-2.43a1.79,1.79,0,0,1,2.3,1.56c.64,2.92,1.23,5.85,1.73,8.8a2.15,2.15,0,0,1-1.44,2.52A1.67,1.67,0,0,1,406.17,860.22Zm4.5,16.48q-1.5-4.41-2.68-9a2.17,2.17,0,0,1,1.24-2.52,1.51,1.51,0,0,1,2.25.73c1.11,3.09,2,6.28,2.85,8.95,0,1.69-.42,2.45-1.37,2.81A1.62,1.62,0,0,1,410.67,876.7Zm8.44,16.52a1.79,1.79,0,0,1-2.73-1c-1.12-2.61-2.2-5.26-3.16-8a2.29,2.29,0,0,1,2.37-3.13,5.2,5.2,0,0,1,1.38,1.49c1.08,2.41,2,4.91,3,7.39A2.61,2.61,0,0,1,419.11,893.22ZM426.33,908c-1,.77-2.2.5-2.9-.83-1.26-2.4-2.48-4.85-3.62-7.34a2.37,2.37,0,0,1,2.2-3.53,5.33,5.33,0,0,1,1.31,1.31c1.24,2.3,2.39,4.67,3.54,7A2.64,2.64,0,0,1,426.33,908Zm2.93,9.63c-.59-1-1.25-2-1.79-3.13a2.65,2.65,0,0,1,.5-3.23,1.79,1.79,0,0,1,2.75.5c1.36,2.14,2.65,4.34,3.91,6.55a3.7,3.7,0,0,1,.28,1.19c0,2-.69,3-1.74,3.14-1.29.18-1.82-.42-2.37-2.08A17.91,17.91,0,0,0,429.26,917.64Zm1.59,11.56c0-1.64.64-2.48,1.83-2.54s2.14.82,2.2,2.48c.06,1.36,0,2.73,0,4.1s0,2.73,0,4.09-1,2.57-2.09,2.54-1.93-1-1.94-2.64Q430.82,933.21,430.85,929.2ZM437,956a1.73,1.73,0,0,1-2.68-.85c-1.09-2.88-2.05-5.84-2.87-8.85a2.07,2.07,0,0,1,1.84-2.6,2,2,0,0,1,2.1,1.68q1.19,3.74,2.42,7.46A2.67,2.67,0,0,1,437,956Zm1.05-266.41c-.86,2.52-1.75,5-2.6,7.54a1.94,1.94,0,0,1-2.33,1.58c-1-.17-1.55-1.12-1.51-3a24.53,24.53,0,0,1,3.09-8.62,1.67,1.67,0,0,1,2.63-.56A2.47,2.47,0,0,1,438.06,689.56Zm11.19,275.18a1.91,1.91,0,0,1-2.86,1.29c-2.22-1.14-4.37-2.47-6.5-3.83a2.19,2.19,0,0,1-.9-2.7,9,9,0,0,1,1.6-2c.75.4,1.22.63,1.67.89,1.79,1,3.56,2.17,5.38,3.14A2.69,2.69,0,0,1,449.25,964.74Zm-.94-283.62c-2,1-3.94,2.16-5.89,3.29a1.92,1.92,0,0,1-2.76-.58,2.56,2.56,0,0,1,.5-3.34,69.54,69.54,0,0,1,7.17-3.93c1.24-.58,2.44.66,2.49,2.35A2.54,2.54,0,0,1,448.31,681.12ZM461.42,968c-1.06.1-2.12.22-3.09.33l-3.93-.35a2.19,2.19,0,0,1-1.94-2.34,2.15,2.15,0,0,1,1.88-2.4c.8-.05,1.61.22,2.41.21,1.45,0,2.9-.12,4.35-.21a2.39,2.39,0,1,1,.32,4.76Zm2.72-290.26a2.08,2.08,0,0,1-2.1,2c-1.2,0-2.39,0-3.59,0v-.1h-3.6a1.77,1.77,0,0,1-1.84-1.7c-.2-1.25.06-2.35,1.21-2.8a3.92,3.92,0,0,1,1.38-.29c1.84,0,3.68,0,5.52,0a5.28,5.28,0,0,1,1.52.27A2.3,2.3,0,0,1,464.14,677.69ZM476,967.61H472.5c-1.15,0-2.3,0-3.45,0a2.24,2.24,0,0,1-2.17-2.41,2.19,2.19,0,0,1,2.2-2.35c2.3,0,4.61,0,6.91,0a2.17,2.17,0,0,1,2.16,2.39A2.24,2.24,0,0,1,476,967.61ZM476.74,680a30.76,30.76,0,0,1-3.72.08c-1.16,0-2.32.06-3.47,0a2.19,2.19,0,0,1-2.16-2.55,2,2,0,0,1,2.29-2.16H473c1.16,0,2.31,0,3.47,0a2.14,2.14,0,0,1,2.14,2.08A2.28,2.28,0,0,1,476.74,680Zm360.63,124c.14,1.24.2,2.5.3,3.75s.21,2.4.31,3.6h-.05c0,.4,0,.8,0,1.21,0,1.51-.64,2.36-1.76,2.46s-2-.58-2.18-2c-.21-1.64-.26-3.31-.38-5-.09-1.25-.23-2.5-.25-3.75a2,2,0,1,1,4-.32Zm-2.55-17.13c.56,2.83,1.07,5.69,1.5,8.55a2.12,2.12,0,0,1-2,2.61c-1.11,0-1.74-.72-1.95-2-.48-2.7-1-5.41-1.38-8.12a2.37,2.37,0,0,1,1.46-2.91C833.5,784.82,834.54,785.5,834.82,786.94Zm-4.31-17.28c1,3.08,1.84,6.25,2.74,9.38-.2,1.31-.7,2.11-1.69,2.41a1.68,1.68,0,0,1-2.23-1.2c-.89-2.93-1.68-5.91-2.39-8.91a2.12,2.12,0,0,1,1.21-2.53A1.61,1.61,0,0,1,830.51,769.66Zm-5.19-15.52c1,2.7,2.07,5.43,3,8.21a2.51,2.51,0,0,1-2.16,3.23c-.56-.59-1.33-1.05-1.63-1.79-1-2.49-1.91-5.07-2.81-7.63a2.51,2.51,0,0,1,.9-3.11A1.85,1.85,0,0,1,825.32,754.14ZM815.73,738c.85-.61,1.92-.67,2.44.32,1.45,2.73,2.71,5.59,4,8.41a2.58,2.58,0,0,1,.08.75l.24.29c-.51.64-.93,1.52-1.56,1.86a1.58,1.58,0,0,1-2.27-.79c-1.29-2.62-2.57-5.25-3.73-7.94A2.31,2.31,0,0,1,815.73,738ZM810,723.91c1.72,2.62,3.27,5.4,4.86,8.13a5,5,0,0,1,.21,1.17c-.39.47-.84,1.45-1.47,1.65a2.18,2.18,0,0,1-2.13-.62c-1.6-2.35-3-4.85-4.44-7.4a2.38,2.38,0,0,1,.52-3C808.37,723.14,809.44,723,810,723.91Zm-4.78-5.79c-.16-2.26-.14-4.53-.14-6.8a13.38,13.38,0,0,1,.2-2.69,1.78,1.78,0,0,1,2.26-1.62c1,.17,1.55,1,1.55,2.2v4.39c0,1.37,0,2.73,0,4.09s-.69,2.39-1.75,2.54A2.06,2.06,0,0,1,805.24,718.12Zm-.41-27.92c1.13-.49,2.22.21,2.67,2,.68,2.69,1.2,5.43,1.79,8.15-.19,1.57-1,2.71-2.11,2.8s-1.92-.87-2.17-2.41c-.36-2.32-.79-4.63-1.31-6.9C803.26,691.91,803.55,690.74,804.83,690.2Zm-11-10.47a1.93,1.93,0,0,1,2.3-1.59,2.23,2.23,0,0,1,1,.37c1.92,1.57,3.88,3.11,5.69,4.85a2.5,2.5,0,0,1,.28,3.58c-.84,1-1.94.88-3.08-.15-1.66-1.49-3.4-2.86-5.13-4.24A2.57,2.57,0,0,1,793.8,679.73Zm-33.93-4.35a2.14,2.14,0,0,1,2.1,2.14,2.28,2.28,0,0,1-1.82,2.5,39.84,39.84,0,0,1-4.09,0v.06a33,33,0,0,1-3.59-.05,1.41,1.41,0,0,1-.88-1,14.26,14.26,0,0,1,.23-2.84c.3-2,1.93-2.72,3.32-1.67a4.56,4.56,0,0,0,2.05.81A20,20,0,0,0,759.87,675.38Zm-5.63-16.77c.58,3.08,1.09,6.19,1.45,9.32a1.93,1.93,0,0,1-1.57,2.21,1.73,1.73,0,0,1-2.26-1.4c-.56-3-.94-6.12-1.4-9.24a2,2,0,0,1,1.41-2.3A1.74,1.74,0,0,1,754.24,658.61Zm-9.79-16a1.73,1.73,0,0,1,2.94.35c1.47,2.35,2.89,4.76,4.14,7.28a2.53,2.53,0,0,1-1.9,3.77,8,8,0,0,1-1.58-1.49c-1.3-2.12-2.5-4.34-3.75-6.51A2.73,2.73,0,0,1,744.45,642.64ZM732,634.41c.24-.79,1.05-1.34,1.61-2l.25.28a4.2,4.2,0,0,1,1,.3c2.12,1.2,4.26,2.36,6.32,3.69a2.48,2.48,0,0,1,.81,3.46c-.64,1.16-1.67,1.34-2.92.59-2-1.15-3.9-2.31-5.89-3.37A2.34,2.34,0,0,1,732,634.41Zm17.54,128.08v-50.1h7.34v114h-7.34V771.59H729.65v54.76h-7.34v-114h7.34v50.1ZM719.88,630.72c1.12,0,2.23,0,3.35,0s2.31,0,3.47,0a2.13,2.13,0,0,1,2.11,2.43,2.1,2.1,0,0,1-2.06,2.33c-2.32,0-4.63,0-7,0a2.39,2.39,0,0,1,.08-4.78Zm-14.63,0h3.47c1.2,0,2.4,0,3.6,0a2.4,2.4,0,0,1,0,4.76q-3.52.07-7.07,0a2.4,2.4,0,0,1,0-4.77ZM683.7,721.35v96h18.38v-28h7.4v28.91a9.53,9.53,0,0,1-1.69,5.83,5.16,5.16,0,0,1-4.28,2.25H682.22A5,5,0,0,1,678,824.1a9.65,9.65,0,0,1-1.64-5.83V720.48a9.63,9.63,0,0,1,1.64-5.83,5,5,0,0,1,4.22-2.26h21.29a5.17,5.17,0,0,1,4.28,2.26,9.51,9.51,0,0,1,1.69,5.83V747h-7.4V721.35Zm7.16-90.62c2.27,0,4.54,0,6.81,0A2.24,2.24,0,0,1,700,633a2.31,2.31,0,0,1-2.29,2.46c-1.16,0-2.32,0-3.48,0s-2.23,0-3.34,0a2.13,2.13,0,0,1-2.14-2.4A2.09,2.09,0,0,1,690.86,630.73Zm-14.53,0c2.3,0,4.61,0,6.91,0a2.19,2.19,0,0,1,2.2,2.36,2.28,2.28,0,0,1-2.18,2.41c-.59,0-1.19,0-1.79,0h-1.79c-1.11,0-2.22,0-3.33,0a2.24,2.24,0,0,1-2.21-2.38A2.22,2.22,0,0,1,676.33,630.73Zm-14.55,0c1.2-.05,2.4,0,3.6,0s2.32,0,3.47,0a2.41,2.41,0,0,1,0,4.76q-3.6.07-7.2,0a2.4,2.4,0,0,1,.08-4.75Zm-27,90.62v-9h33v9H655v105h-7.35v-105Zm12.66-90.62c2.32,0,4.63,0,7,0a2.2,2.2,0,0,1,2.13,2.3,2.23,2.23,0,0,1-2.13,2.46c-1.2,0-2.4,0-3.6,0s-2.23,0-3.34,0a2.22,2.22,0,0,1-2.19-2.39A2.18,2.18,0,0,1,647.4,630.73Zm-14.49,0h3.48c1.15,0,2.31,0,3.47,0a2.32,2.32,0,0,1,2.18,2.43,2.25,2.25,0,0,1-2.14,2.33q-3.52.07-7.07,0c-1.29,0-2-1-2-2.35A2.12,2.12,0,0,1,632.91,630.72Zm-14.48,0c2.31,0,4.63,0,6.94,0a2.4,2.4,0,0,1,0,4.77c-1.2,0-2.4,0-3.6,0s-2.23,0-3.34,0a2.39,2.39,0,0,1,0-4.77Zm-14.48,0c2.32,0,4.63,0,6.95,0A2.12,2.12,0,0,1,613,633a2.16,2.16,0,0,1-2.09,2.47c-1.16,0-2.32,0-3.47,0s-2.32,0-3.48,0a2.26,2.26,0,0,1-2.21-2.39A2.23,2.23,0,0,1,604,630.73Zm-14.35,0q3.35,0,6.69,0a2.4,2.4,0,0,1,0,4.79H593c-1.11,0-2.23,0-3.34,0a2.39,2.39,0,0,1,0-4.78Zm-2.91,111c0-14.21,8-25.72,17.95-25.72s18,11.51,18,25.72c0,10.26-4.19,19.13-10.26,23.25l10.26,53.93h-35.9L597,765C590.88,760.85,586.69,752,586.69,741.72Zm-11.63-111q3.41,0,6.81,0a2.26,2.26,0,0,1,2.25,2.34,2.32,2.32,0,0,1-2.31,2.44h-3.34c-1.16,0-2.31,0-3.47,0a2.12,2.12,0,0,1-2.11-2.43A2.07,2.07,0,0,1,575.06,630.73Zm-14.6,0c1.2,0,2.4,0,3.6,0s2.31,0,3.47,0a2.18,2.18,0,0,1,2.05,2.37,2.15,2.15,0,0,1-2,2.39q-3.52.07-7.07,0a2.4,2.4,0,0,1,0-4.76Zm-14.41,0c2.32,0,4.63,0,7,0a2.16,2.16,0,0,1,2.09,2.46A2.12,2.12,0,0,1,553,635.5c-1.2,0-2.4,0-3.6,0s-2.23,0-3.35,0a2.25,2.25,0,0,1-2.2-2.39A2.22,2.22,0,0,1,546.05,630.73Zm-4.56,81.66h33v9H561.72v105h-7.34v-105H541.49Zm1.81,121.19h12.21v.62l-28.62,51.43,31.45,56H546L516.78,889.7v51.91H505.54v-108h11.24v48.53ZM531.66,630.72c1.12,0,2.23,0,3.35,0s2.23,0,3.34,0a2.25,2.25,0,0,1,2.31,2.41,2.19,2.19,0,0,1-2.21,2.36c-2.27,0-4.55,0-6.82,0a2.18,2.18,0,0,1-2.22-2.49A2.16,2.16,0,0,1,531.66,630.72Zm-14.59,0q3.46-.06,6.93,0a2.39,2.39,0,0,1,0,4.77c-1.15,0-2.31,0-3.46,0s-2.32,0-3.47,0c-1.35-.06-2.08-1-2-2.48A2,2,0,0,1,517.07,630.73Zm-15.19,4a65.22,65.22,0,0,1,7.81-3.23c.85-.3,1.6.49,1.94,1.57a2.13,2.13,0,0,1-.72,2.63c-2.6,1.23-5.27,2.23-8.32,3.49-.44-.54-1.33-1.14-1.5-2A3.1,3.1,0,0,1,501.88,634.75ZM487,654.23a1.79,1.79,0,0,1,2.58-1.18c1,.49,1.41,1.74,1.05,3.19-.51,2.07-1,4.14-1.54,6.22-.12.48-.15,1-.27,1.47-.34,1.35-1.28,2.13-2.27,1.92s-1.69-1.21-1.9-2.72C485.42,660.16,486.13,657.16,487,654.23Zm-3.79,21.25c.79-.2,1-.65.9-1.46,0-.65,0-1.32,0-2,.05-1.4.79-2.35,1.86-2.43a2.06,2.06,0,0,1,2.14,2.11c.17,2.46.24,4.94.28,7.41a1.26,1.26,0,0,1-.73.91,8.2,8.2,0,0,1-1.92.05v.11c-.8-.09-1.61-.13-2.41-.3a2.43,2.43,0,0,1-.12-4.43Zm.9,293.63c.07-.93-.08-1.46-1.06-1.58s-1.7-1.12-1.7-2.44a2.16,2.16,0,0,1,2-2.25c1.61-.05,3.23,0,4.74,0,0,2.77.07,5.28,0,7.78a2.11,2.11,0,0,1-2.12,2.15,2.27,2.27,0,0,1-1.86-2.44A9.79,9.79,0,0,1,484.11,969.11Zm5,20.27a1.48,1.48,0,0,1-2.16-1c-.85-3.15-1.6-6.35-2.18-9.59a2,2,0,0,1,1.56-2.24,1.66,1.66,0,0,1,2.14,1.2c.79,3.07,1.42,6.21,2.22,9.84A6.81,6.81,0,0,1,489.13,989.38Zm8.41,13.79c-.64.28-1.76.35-2.13-.1a88.92,88.92,0,0,1-5.34-7.31,2.22,2.22,0,0,1,.61-2.92,1.64,1.64,0,0,1,2.64.32c1.63,2.14,3.21,4.34,4.76,6.55a7.68,7.68,0,0,1,.62,1.76C498.33,1002.05,498,1003,497.54,1003.17Zm.6-359.95c-1.4,1.9-2.86,3.74-4.25,5.64-.9,1.25-1.92,1.57-2.9.78a2.46,2.46,0,0,1-.45-3.42,73.31,73.31,0,0,1,5-6.61,2.21,2.21,0,0,1,2.19-.32c.58.24.94,1.23,1.44,2A18.63,18.63,0,0,1,498.14,643.22Zm2.36,146.14h7.34v28H525.7V790.23l-22.82-38a16.38,16.38,0,0,1-2.38-8.66V720.48a9.57,9.57,0,0,1,1.66-5.83,5.1,5.1,0,0,1,4.26-2.26h20.81a5,5,0,0,1,4.2,2.26,9.83,9.83,0,0,1,1.61,5.83V747H525.7V721.35H507.84v24l22.93,38a16.26,16.26,0,0,1,2.27,8.52v26.36a9.85,9.85,0,0,1-1.61,5.83,5,5,0,0,1-4.2,2.25H506.42a5.09,5.09,0,0,1-4.26-2.25,9.59,9.59,0,0,1-1.66-5.83Zm10.63,220.51c-.45,1.09-1.24,1.71-2.18,1.35-2.47-1-4.9-2-7.31-3.14a2.18,2.18,0,0,1-1-2.78,6.65,6.65,0,0,1,1.48-1.89c3.05,1.32,5.76,2.37,8.37,3.68A2.14,2.14,0,0,1,511.13,1009.87Zm13.27,2.1a2.33,2.33,0,0,1-1,.24c-2.22,0-4.45.06-6.68,0a2.16,2.16,0,0,1-2.24-2.32c0-1.38.65-2.33,1.83-2.38s2.57,0,3.86,0h3.6c1.12,0,1.76.76,1.93,2A2.25,2.25,0,0,1,524.4,1012Zm14,.14a39.54,39.54,0,0,1-4.36.12,24.54,24.54,0,0,1-3.21-.07,2.3,2.3,0,0,1-1.93-2.54,2.11,2.11,0,0,1,2.22-2.14h3.47c1.15,0,2.31,0,3.46,0a2,2,0,0,1,2.09,2.09A2.15,2.15,0,0,1,538.42,1012.11Zm14.6,0a72.34,72.34,0,0,1-7.93,0c-1.13-.06-1.85-1.41-1.66-2.6s.86-2,2.05-2,2.39,0,3.59,0h3.59c1.1,0,1.8.58,1.92,1.92S554.19,1012,553,1012.07Zm14.25.08a35.49,35.49,0,0,1-3.72,0v0c-1.16,0-2.31.06-3.46,0-1.45-.09-2.17-1-2.12-2.57s.71-2.14,2.25-2.15c2.27,0,4.54,0,6.8,0a2,2,0,0,1,2.13,2.07A2.3,2.3,0,0,1,567.27,1012.15Zm2-178.57h41.07v8.49H580.49v40.31h27.17V891H580.49v42.11h30.32v8.49H569.25ZM582,1012a72.24,72.24,0,0,1-8.06,0c-1.14-.07-1.66-1.2-1.54-2.53s.84-2,2-2h7.19c1.19,0,1.87.75,2,2.07S583.11,1012,582,1012Zm14.53,0a72,72,0,0,1-8.18,0c-1.07-.07-1.72-1.41-1.51-2.57s.84-1.95,2-1.95h3.72c1.2,0,2.4,0,3.6,0s1.79.69,1.91,2S597.69,1012,596.54,1012Zm14.07.16c-1.24.11-2.48,0-3.73,0v0c-1.11,0-2.23,0-3.34,0a2.36,2.36,0,0,1-2.24-2.54,2.11,2.11,0,0,1,2.31-2.18c2.27,0,4.54,0,6.81,0a2,2,0,0,1,2.14,2.18A2.2,2.2,0,0,1,610.61,1012.17Zm14.58,0a35.47,35.47,0,0,1-3.72.08c-1.16,0-2.32,0-3.47,0a2.19,2.19,0,0,1-2.13-2.58c0-1.5.72-2.13,2.27-2.15h3.34c1.15,0,2.31,0,3.46,0a2.1,2.1,0,0,1,2.15,2.07A2.36,2.36,0,0,1,625.19,1012.15ZM640,1012a8.18,8.18,0,0,1-2,.2c-1.85,0-3.69.06-5.53,0a2.23,2.23,0,0,1-2.17-2.57,2.06,2.06,0,0,1,2.32-2.14h6.94a1.91,1.91,0,0,1,2,1.94A2.16,2.16,0,0,1,640,1012Zm14.22.09c-1.57.17-3.16.1-4.74.12a20.57,20.57,0,0,1-2.83-.06,2.34,2.34,0,0,1-1.94-2.55,2.11,2.11,0,0,1,2.22-2.13c1.16,0,2.32,0,3.47,0s2.32,0,3.47,0a2,2,0,0,1,2.09,2.09C656.06,1010.93,655.46,1012,654.24,1012.11Zm1.93-70.5H644.93V899.78a67.66,67.66,0,0,0-3.48-11c-2.58-6.62-4-10.23-4.2-10.83l-15.36-43.7v-.62h11.4l17.38,54,17.22-54h11.32v.62l-15.36,43.7a225.11,225.11,0,0,0-7.68,21.88Zm12.43,70.54c-1.32.14-2.66.07-4,.08-1,0-2.06,0-3.09,0a2.34,2.34,0,0,1-2.32-2.45,2.14,2.14,0,0,1,2.36-2.28h3.34c1.16,0,2.31,0,3.47,0a2,2,0,0,1,2.09,2.09A2.22,2.22,0,0,1,668.6,1012.15Zm14.94-.14a2.45,2.45,0,0,1-.87.2c-2.23,0-4.45.06-6.68,0a2.15,2.15,0,0,1-2.21-2.48c0-1.55.71-2.24,2.31-2.25H683c1.15,0,1.79.79,1.93,2A2.21,2.21,0,0,1,683.54,1012Zm14.55,0a2.7,2.7,0,0,1-1,.23c-2.18,0-4.37.06-6.55,0a2.25,2.25,0,0,1-2.34-2.54c0-1.44.86-2.18,2.42-2.19h6.94c1.07,0,1.69.74,1.86,1.89A2.22,2.22,0,0,1,698.09,1012Zm14.13.1a28.88,28.88,0,0,1-3.84.15c-1.11,0-2.23,0-3.34,0a2.38,2.38,0,0,1-2.4-2.51,2.19,2.19,0,0,1,2.41-2.23h6.8c1.17,0,1.87.65,2,2S713.42,1011.9,712.22,1012.08Zm22.24-2c-3.67,1.47-7.4,2.55-10.81,2.14-1.75,0-3,0-4.24,0a2.35,2.35,0,0,1-2.29-2.49,2.12,2.12,0,0,1,2.39-2.23c4.68.14,9.33.06,13.79-2a1.92,1.92,0,0,1,2.64,1.38A2.49,2.49,0,0,1,734.46,1010.08ZM738,925.31a11.89,11.89,0,0,1-8.31-3.37l-5.15-5a6.75,6.75,0,0,0-9.42.08l-1,1a6.74,6.74,0,0,0,0,9.51l4.42,4.42-3.7,3.7-4.42-4.42a12,12,0,0,1,0-16.9l1-1a11.82,11.82,0,0,1,8.35-3.5h.1a11.88,11.88,0,0,1,8.31,3.36l5.15,5a6.75,6.75,0,0,0,9.42-.08,6.72,6.72,0,0,0,0-9.53l-17-16.83c-17.14,13.89-55.58,44.68-55.58,44.68s30.09-37.58,43.69-54.38a15.09,15.09,0,0,1,1.46-19.6l7.24-7.24a15,15,0,0,1,10.65-4.41,15.18,15.18,0,0,1,5.61,1.08,16.48,16.48,0,0,1,9-4.67,9.76,9.76,0,0,1,11.59,11.6,16.51,16.51,0,0,1-4.76,9.07c-1.86,1.85-12.53,10.62-24.78,20.56l16.58,16.43a12,12,0,0,1-8.31,20.44Zm9.26,74.75c-1.75,1.92-3.51,3.83-5.37,5.59a1.82,1.82,0,0,1-3-.42,2.82,2.82,0,0,1,.76-3.54c1.61-1.58,3.16-3.23,4.69-4.91.74-.81,1.6-1.19,2.44-.61a7.58,7.58,0,0,1,1.4,2A8.5,8.5,0,0,1,747.25,1000.06Zm7.11-16.17c-.75,2.67-1.6,5.31-2.45,7.93-.35,1.06-1,1.77-2,1.65a2.22,2.22,0,0,1-1.92-3c.81-2.7,1.68-5.38,2.55-8.05a2,2,0,0,1,2.48-1.49A2.38,2.38,0,0,1,754.36,983.89Zm1.41-9.73a4.22,4.22,0,0,1-1.14,2.65c-1.25,1-2.83-.16-2.87-2,0-1.41,0-2.83,0-4.25h0c0-1.26,0-2.53,0-3.8,0-1.7.84-2.89,2.06-2.9s2,1,2,2.77C755.85,969.13,755.92,971.65,755.77,974.16Zm11.44-6.56q-3.47.06-6.94,0c-1.34,0-2.1-1-2.08-2.45a2.06,2.06,0,0,1,2.06-2.31c1.15,0,2.31,0,3.47,0s2.31,0,3.47,0a2.39,2.39,0,0,1,0,4.77Zm-.47-287.67c-1.11-.07-1.7-1.19-1.56-2.52s.85-2,2-2h7.19c1.18,0,1.88.73,2,2.06s-.45,2.44-1.57,2.5A72.41,72.41,0,0,1,766.74,679.93Zm14.78,288.28h-.77c-2.12-.21-4.25-.38-6.37-.64a2.21,2.21,0,0,1-1.76-2.53c.1-1.36.8-2.19,1.92-2.18,1.66,0,3.31.24,5,.38.68.06,1.36.15,2,.18a2.21,2.21,0,0,1,2.3,2.37A2.32,2.32,0,0,1,781.52,968.21Zm.13-288.66a2.35,2.35,0,0,1-2.06-2.58,2.22,2.22,0,0,1,2.2-2.19c.52,0,1,0,1.54,0l0-.13c1.86.26,3.72.47,5.58.78a2.32,2.32,0,0,1,1.89,2.72,2.06,2.06,0,0,1-2.29,2C786.23,680,783.94,679.78,781.65,679.55Zm15.29,284.84c-2.5,1.23-5.09,2.22-7.64,3.31l-.11-.37c-1.16.08-1.87-.62-2.13-1.9a2.43,2.43,0,0,1,1.51-2.77c2.18-.82,4.37-1.65,6.56-2.46a1.91,1.91,0,0,1,2.6,1.2C798.19,962.65,797.94,963.9,796.94,964.39Zm10.5-13.45a22.87,22.87,0,0,1-4.21,8.07,1.82,1.82,0,0,1-2.79.22,2.72,2.72,0,0,1-.23-3.39c1.17-2.16,2.24-4.39,3.45-6.51a9.54,9.54,0,0,1,1.7-1.72A2.58,2.58,0,0,1,807.44,950.94Zm1.65-9.22c0,1.59-.84,2.53-2.05,2.52s-2-1-2-2.59c0-2.57-.07-5.16.09-7.72a4.25,4.25,0,0,1,1.07-2.55c1.14-1.1,2.8,0,2.88,1.7.07,1.51,0,3,0,4.55C809.1,939,809.13,940.36,809.09,941.72Zm1.32-23.61c-1.43,1.87-1.34,4-1.31,6.25,0,1.82-.63,2.79-1.85,2.85s-2-1-2.14-2.67c-.06-.86,0-1.72,0-2.95-.63-2.38.76-4.26,2-6.17a1.81,1.81,0,0,1,2.76-.5A2.44,2.44,0,0,1,810.41,918.11Zm8-14.74c-1.28,2.74-2.69,5.4-4.17,8a1.6,1.6,0,0,1-2.54.4,2.24,2.24,0,0,1-.76-2.88c1.3-2.67,2.68-5.29,4.12-7.86.28-.49,1-.66,1.18-.8A2.23,2.23,0,0,1,818.45,903.37Zm6.62-14.63c-1,2.45-2,4.9-3.11,7.31-.59,1.32-1.72,1.73-2.7,1.14a2.59,2.59,0,0,1-.91-3.24q1.57-3.9,3.29-7.72a1.74,1.74,0,0,1,2.31-1.08c.9.33,1.42,1.1,1.36,2.63A5.76,5.76,0,0,1,825.07,888.74Zm5.83-17a11.33,11.33,0,0,1-.3,1.31c-.76,2.41-1.52,4.83-2.33,7.22-.51,1.49-1.57,2.08-2.67,1.62a2.64,2.64,0,0,1-1.14-3.28c.8-2.61,1.63-5.21,2.52-7.79.42-1.23,1.34-1.9,2.38-1.4.71.35,1.2,1.31,1.79,2Zm2-7.21a1.76,1.76,0,0,1-2.44,1.24,2.23,2.23,0,0,1-1.32-2.61c.58-2.89,1.24-5.75,1.91-8.6.32-1.32,1.19-1.87,2.28-1.61s1.64,1.18,1.71,2.6C834.31,858.5,833.66,861.51,832.87,864.48Zm3.44-17.1a1.91,1.91,0,0,1-2.35,1.73,2,2,0,0,1-1.6-2.36c.28-3,.65-6,1.08-9a1.91,1.91,0,0,1,2.41-1.64c1,.21,1.6,1.24,1.53,3.17C837.07,841.7,836.74,844.55,836.31,847.38Zm1.62-17.08a1.88,1.88,0,0,1-2.1,1.91,2.21,2.21,0,0,1-1.86-2.46q.06-4,.16-8c.06-2,1.18-3.09,2.55-2.68a2.07,2.07,0,0,1,1.49,2.17c0,1.26,0,2.53,0,3.8h.1C838.17,826.78,838.1,828.54,837.93,830.3Z" transform="translate(-389 -610)"/><path d="M733.19,856a9.73,9.73,0,0,0-7,2.88L719,866.15a9.86,9.86,0,0,0-1.7,11.63C724.4,869,731,861,735,856.2a9.77,9.77,0,0,1,5.15,2.72l1.78,1.77a2.81,2.81,0,0,0,.2,3.73,2.65,2.65,0,0,0,1.86.79,3.84,3.84,0,0,0,2.24-.85,14.88,14.88,0,0,0,1.64-1.43,14.68,14.68,0,0,0,1.42-1.63c1.59-2.18.57-3.6.06-4.11a2.8,2.8,0,0,0-3.72-.2l-1.78-1.77a14.83,14.83,0,0,0-5.06-3.34s-2,2.15-3.79,4.32A10,10,0,0,0,733.19,856Z" transform="translate(-389 -610)"/></svg>