<?xml version="1.0" encoding="utf-8"?>
<!-- Generator: Adobe Illustrator 23.0.3, SVG Export Plug-In . SVG Version: 6.00 Build 0)  -->
<svg version="1.1" id="Layer_1" xmlns="http://www.w3.org/2000/svg" xmlns:xlink="http://www.w3.org/1999/xlink" x="0px" y="0px"
	 viewBox="0 0 1440 2560" style="enable-background:new 0 0 1440 2560;" xml:space="preserve">
<g>
	<path d="M836.3,956.2l-7.9-41.6c4.7-3.2,7.9-10,7.9-18c0-11-6.2-19.9-13.9-19.9s-13.9,8.9-13.9,19.9c0,7.9,3.2,14.8,7.9,18
		l-7.9,41.6H836.3z"/>
	<path d="M762.6,962c1.3,0,2.4-0.6,3.2-1.7c0.8-1.2,1.2-2.7,1.2-4.5v-20.4c0-2.4-0.6-4.6-1.8-6.6l-17.7-29.4v-18.6h13.8v19.8h5.7
		v-20.5c0-1.8-0.4-3.3-1.2-4.5c-0.8-1.2-1.9-1.7-3.2-1.7h-16.1c-1.3,0-2.4,0.6-3.3,1.7c-0.9,1.2-1.3,2.7-1.3,4.5v17.8
		c0,2.4,0.6,4.7,1.8,6.7l17.6,29.4v21h-13.8v-21.6H742v22.3c0,1.8,0.4,3.3,1.3,4.5c0.9,1.2,2,1.7,3.3,1.7H762.6z"/>
	<polygon points="799.1,874 773.7,874 773.7,880.9 783.6,880.9 783.6,962 789.3,962 789.3,880.9 799.1,880.9 	"/>
	<polygon points="855.6,962 861.3,962 861.3,880.9 871.1,880.9 871.1,874 845.7,874 845.7,880.9 855.6,880.9 	"/>
	<path d="M882.3,962h16.4c1.3,0,2.4-0.6,3.3-1.7c0.9-1.2,1.3-2.7,1.3-4.5v-22.3h-5.7v21.6h-14.2v-74.2h14.2v19.8h5.7v-20.5
		c0-1.8-0.4-3.3-1.3-4.5c-0.9-1.2-2-1.7-3.3-1.7h-16.4c-1.3,0-2.4,0.6-3.3,1.7c-0.8,1.2-1.3,2.7-1.3,4.5v75.5c0,1.8,0.4,3.3,1.3,4.5
		C879.9,961.4,881,962,882.3,962z"/>
	<polygon points="919,919.7 934.3,919.7 934.3,962 940,962 940,874 934.3,874 934.3,912.7 919,912.7 919,874 913.3,874 913.3,962 
		919,962 	"/>
	<polygon points="784.5,968.1 784.5,967.6 775,967.6 754.6,1005.1 754.6,967.6 745.9,967.6 745.9,1051 754.6,1051 754.6,1010.9 
		777.1,1051 786.7,1051 762.4,1007.8 	"/>
	<polygon points="803.8,1011.9 824.7,1011.9 824.7,1005.3 803.8,1005.3 803.8,974.1 826.8,974.1 826.8,967.6 795.1,967.6 
		795.1,1051 827.2,1051 827.2,1044.4 803.8,1044.4 	"/>
	<path d="M880,967.6h-8.7l-13.3,41.7l-13.4-41.7h-8.8c0,0.3,0,0.4,0,0.5l11.9,33.7c0.2,0.5,1.2,3.3,3.2,8.4c1.2,3,2.1,5.8,2.7,8.5
		v32.3h8.7v-32.3c2.5-7.9,4.4-13.5,5.9-16.9l11.9-33.7C880,968,880,967.8,880,967.6z"/>
	<path d="M939.9,980.1c-1.7-1.7-4.2-2.4-6.9-2c-2.5,0.4-4.9,1.6-6.9,3.6c1.5,0.6,2.8,1.4,3.9,2.6l1.4,1.4c1.5-0.9,2.5-0.2,2.9,0.2
		c0.4,0.4,1.2,1.5,0,3.2c-0.3,0.4-0.7,0.8-1.1,1.3c-0.4,0.4-0.9,0.8-1.3,1.1c-0.7,0.5-1.2,0.7-1.7,0.7c-0.7,0-1.2-0.4-1.4-0.6
		c-0.4-0.4-1.1-1.4-0.2-2.9l-1.4-1.4c-1.1-1.1-2.5-1.8-4-2.1c-3.1,3.7-8.2,9.9-13.7,16.7c-1.6-2.9-1.1-6.6,1.3-9l5.6-5.6
		c1.4-1.4,3.3-2.2,5.4-2.2c0.5,0,0.9,0,1.4,0.1c1.4-1.7,2.9-3.3,2.9-3.3c-1.4-0.5-2.8-0.8-4.3-0.8c-3.1,0-6,1.2-8.2,3.4l-5.6,5.6
		c-4.1,4.1-4.5,10.6-1.1,15.1c-10.5,13-33.7,42-33.7,42s29.7-23.8,42.9-34.5l13.1,13c1,1,1.5,2.3,1.5,3.7c0,1.4-0.5,2.7-1.5,3.7
		c-2,2-5.3,2-7.3,0.1l-4-3.8c-1.7-1.7-4-2.6-6.4-2.6c0,0-0.1,0-0.1,0c-2.4,0-4.7,1-6.4,2.7l-0.8,0.8c-3.6,3.6-3.6,9.5,0,13.1
		l3.4,3.4l2.9-2.9l-3.4-3.4c-2-2-2-5.3,0-7.3l0.8-0.8c2-2,5.3-2,7.3-0.1l4,3.8c1.7,1.7,4,2.6,6.4,2.6c0,0,0.1,0,0.1,0
		c2.4,0,4.7-1,6.4-2.7c1.7-1.7,2.7-4.1,2.7-6.5s-1-4.8-2.7-6.5l-12.8-12.7c9.5-7.7,17.7-14.5,19.1-15.9c2-2,3.3-4.5,3.7-7
		C942.3,984.4,941.6,981.8,939.9,980.1z"/>
</g>
</svg>
